<?xml version="1.0" encoding="UTF-8"?>
<svg id="Ebene_1" data-name="Ebene 1" xmlns="http://www.w3.org/2000/svg" viewBox="0 0 982.83 911.41">
  <defs>
    <style>
      .cls-1 {
        fill: #f7f7eb;
      }
    </style>
  </defs>
  <path class="cls-1" d="M765.74,869.38v-238.06c0-22.7-19.24-42-42-42h-.01l42,42c-.84-49.58-22.12-95.51-55.87-131.3-34.04-36.11-80.28-60.83-127.77-74.07-101.68-28.34-221.23-8.28-300.19,64.27-39.51,36.3-64.88,87.09-65.79,141.1l42-42h-.01c-22.7,0-42,19.24-42,42v238.06c0,10.77,4.69,22.08,12.3,29.7,7.28,7.28,19.24,12.77,29.7,12.3,22.76-1.02,42-18.45,42-42v-238.06l-42,42h.01c22.99,0,41.62-19.25,42-42,.09-5.6.5-11.17,1.23-16.73l-1.5,11.17c1.71-12.17,4.97-23.99,9.66-35.35l-4.23,10.03c5.49-13.01,12.73-25.13,21.34-36.31-2.19,2.83-4.38,5.67-6.57,8.5,10.18-13.03,22.05-24.55,35.12-34.66-2.83,2.19-5.67,4.38-8.5,6.57,16.24-12.41,34.05-22.5,52.85-30.49l-10.03,4.23c23.09-9.66,47.37-16.04,72.16-19.42-3.72.5-7.44,1-11.17,1.5,26.84-3.51,54.03-3.51,80.87,0-3.72-.5-7.44-1-11.17-1.5,24.79,3.37,49.07,9.75,72.16,19.42l-10.03-4.23c18.8,7.99,36.62,18.08,52.85,30.49l-8.5-6.57c13.07,10.12,24.94,21.64,35.12,34.66l-6.57-8.5c8.61,11.18,15.85,23.3,21.34,36.31l-4.23-10.03c4.69,11.36,7.95,23.17,9.66,35.35l-1.5-11.17c.73,5.56,1.14,11.13,1.23,16.73.38,22.7,18.93,42,42,42h.01l-42-42v238.06c0,10.77,4.69,22.08,12.3,29.7,7.28,7.28,19.24,12.77,29.7,12.3,22.76-1.02,42-18.45,42-42h0Z"/>
  <path class="cls-1" d="M84,869.38v-389.83c0-20.55-.5-41.22,1.05-61.73.53-6.97,1.27-13.91,2.18-20.84l-1.5,11.17c4.39-32.38,13.07-64.02,25.71-94.16l-4.23,10.03c13.17-31.12,30.42-60.33,51.04-87.08l-6.57,8.5c22.12-28.52,47.88-54.01,76.39-76.12l-8.5,6.57c31.25-24.09,65.55-43.95,101.87-59.36l-10.03,4.23c39.68-16.71,81.46-27.98,124.12-33.77l-11.17,1.5c44.48-5.91,89.64-5.91,134.12,0l-11.17-1.5c42.66,5.79,84.44,17.06,124.12,33.77l-10.03-4.23c36.31,15.41,70.61,35.28,101.87,59.36-2.83-2.19-5.67-4.38-8.5-6.57,28.51,22.11,54.28,47.6,76.39,76.12l-6.57-8.5c20.62,26.76,37.86,55.97,51.04,87.08l-4.23-10.03c12.64,30.13,21.32,61.77,25.71,94.16l-1.5-11.17c3.25,24.62,3.23,49.19,3.23,73.93v340.67c0,19-.31,38.02,0,57.02,0,.26,0,.53,0,.79,0,10.77,4.69,22.08,12.3,29.7,7.28,7.28,19.24,12.77,29.7,12.3,22.76-1.02,42-18.45,42-42v-34.51c0-28.42,0-56.83,0-85.25,0-36.37,0-72.73,0-109.1v-177.35c0-20.62-.17-41.14-2.65-61.66-3.31-27.35-8.29-54.23-16.83-80.47-8.29-25.47-19.01-50.43-31.84-73.95-24.47-44.86-57.67-85.87-96.03-119.6-20.7-18.2-42.94-34.94-66.32-49.56-24.21-15.14-49.72-27.41-76.02-38.44-51.51-21.61-106.4-33.55-162.02-37.92-56.85-4.47-114.98.69-170.33,14.37-52.25,12.91-103.28,34.31-148.8,63.06-43.88,27.72-84.21,62.26-116.52,102.99-16.76,21.12-32.23,43.03-45.04,66.79-12.82,23.77-23.53,48.97-31.71,74.71C6.05,363.31,0,405.63,0,447.38c0,15.91,0,31.83,0,47.74,0,30.86,0,61.73,0,92.59,0,36.84,0,73.69,0,110.53v171.13c0,10.77,4.69,22.08,12.3,29.7,7.28,7.28,19.24,12.77,29.7,12.3,22.76-1.02,42-18.45,42-42h0Z"/>
</svg>