<?xml version="1.0" encoding="UTF-8"?>
<svg id="Ebene_1" data-name="Ebene 1" xmlns="http://www.w3.org/2000/svg" viewBox="0 0 971.42 971.42">
  <defs>
    <style>
      .cls-1 {
        fill: #f7f7eb;
      }
    </style>
  </defs>
  <path class="cls-1" d="M657.35,485.71c-.03,9.74-.68,19.45-1.97,29.1.5-3.72,1-7.44,1.5-11.17-2.61,18.71-7.62,36.95-14.95,54.36l4.23-10.03c-7.27,16.97-16.65,32.9-27.93,47.52,2.19-2.83,4.38-5.67,6.57-8.5-11.03,14.11-23.7,26.78-37.81,37.81l8.5-6.57c-14.61,11.29-30.54,20.66-47.52,27.93l10.03-4.23c-17.41,7.33-35.65,12.34-54.36,14.95l11.17-1.5c-19.33,2.57-38.87,2.57-58.21,0l11.17,1.5c-18.71-2.61-36.95-7.62-54.36-14.95l10.03,4.23c-16.97-7.27-32.9-16.65-47.52-27.93,2.83,2.19,5.67,4.38,8.5,6.57-14.11-11.03-26.78-23.7-37.81-37.81,2.19,2.83,4.38,5.67,6.57,8.5-11.29-14.61-20.66-30.54-27.93-47.52l4.23,10.03c-7.33-17.41-12.34-35.65-14.95-54.36l1.5,11.17c-2.57-19.33-2.57-38.87,0-58.21l-1.5,11.17c2.61-18.71,7.62-36.95,14.95-54.36l-4.23,10.03c7.27-16.97,16.65-32.9,27.93-47.52l-6.57,8.5c11.03-14.11,23.7-26.78,37.81-37.81l-8.5,6.57c14.61-11.29,30.54-20.66,47.52-27.93l-10.03,4.23c17.41-7.33,35.65-12.34,54.36-14.95l-11.17,1.5c19.33-2.57,38.87-2.57,58.21,0l-11.17-1.5c18.71,2.61,36.95,7.62,54.36,14.95l-10.03-4.23c16.97,7.27,32.9,16.65,47.52,27.93l-8.5-6.57c14.11,11.03,26.78,23.7,37.81,37.81l-6.57-8.5c11.29,14.61,20.66,30.54,27.93,47.52l-4.23-10.03c7.33,17.41,12.34,35.65,14.95,54.36-.5-3.72-1-7.44-1.5-11.17,1.28,9.66,1.93,19.36,1.97,29.1.03,10.79,4.66,22.06,12.3,29.7,7.28,7.28,19.24,12.77,29.7,12.3,22.69-1.02,42.08-18.46,42-42-.17-51.23-15.58-103.53-45.5-145.36-8.15-11.4-16.9-22.51-26.63-32.61s-20.65-18.92-31.85-27.49c-20.12-15.4-42.57-26.66-66.3-35.44-48.79-18.07-104.9-19.32-154.84-5.19-48.14,13.63-93.49,42.06-125.34,80.81-8.92,10.85-17.45,22.13-24.69,34.18s-13.07,25.13-18.48,38.31c-9.87,24.02-14.86,49.51-16.95,75.34-4.16,51.4,9.11,105.06,35.77,149.12,25.78,42.6,64.7,78.93,110.26,99.46,13.03,5.87,26.31,11.29,40.09,15.14s28.57,6.1,43.13,7.84c26.24,3.14,52.89,1.06,78.75-4.08,49.28-9.8,96.21-36.33,130.91-72.54s60.09-83.83,67.72-133.84c2.21-14.5,3.91-28.98,3.96-43.66.03-10.75-4.71-22.11-12.3-29.7s-19.24-12.77-29.7-12.3c-22.82,1.02-41.92,18.45-42,42Z"/>
  <path class="cls-1" d="M527.71,131.1V42.03c0-10.77-4.69-22.08-12.3-29.7-7.28-7.28-19.24-12.77-29.7-12.3-22.76,1.02-42,18.45-42,42v89.07c0,10.77,4.69,22.08,12.3,29.7s19.24,12.77,29.7,12.3c22.76-1.02,42-18.45,42-42h0Z"/>
  <path class="cls-1" d="M527.71,929.39v-89.07c0-10.77-4.69-22.08-12.3-29.7-7.28-7.28-19.24-12.77-29.7-12.3-22.76,1.02-42,18.45-42,42v89.07c0,10.77,4.69,22.08,12.3,29.7,7.28,7.28,19.24,12.77,29.7,12.3,22.76-1.02,42-18.45,42-42h0Z"/>
  <path class="cls-1" d="M840.32,527.71c26.01,0,52.01,0,78.02,0,3.68,0,7.37,0,11.05,0,10.77,0,22.08-4.69,29.7-12.3s12.77-19.24,12.3-29.7c-1.02-22.76-18.45-42-42-42-26.01,0-52.01,0-78.02,0-3.68,0-7.37,0-11.05,0-10.77,0-22.08,4.69-29.7,12.3-7.28,7.28-12.77,19.24-12.3,29.7,1.02,22.76,18.45,42,42,42h0Z"/>
  <path class="cls-1" d="M42.03,527.71c26.01,0,52.01,0,78.02,0,3.68,0,7.37,0,11.05,0,10.77,0,22.08-4.69,29.7-12.3,7.28-7.28,12.77-19.24,12.3-29.7-1.02-22.76-18.45-42-42-42-26.01,0-52.01,0-78.02,0-3.68,0-7.37,0-11.05,0-10.77,0-22.08,4.69-29.7,12.3S-.44,475.25.03,485.71c1.02,22.76,18.45,42,42,42h0Z"/>
  <path class="cls-1" d="M770.1,256.88c18.68-18.1,37.36-36.19,56.04-54.29,2.65-2.56,5.29-5.13,7.94-7.69,15.81-15.31,16.53-44.22,0-59.4-16.99-15.59-42.53-16.34-59.4,0-18.68,18.1-37.36,36.19-56.04,54.29-2.65,2.56-5.29,5.13-7.94,7.69-15.81,15.31-16.53,44.22,0,59.4,16.99,15.59,42.53,16.34,59.4,0h0Z"/>
  <path class="cls-1" d="M196.74,812.33c18.68-18.1,37.36-36.19,56.04-54.29,2.65-2.56,5.29-5.13,7.94-7.69,15.81-15.31,16.53-44.22,0-59.4-16.99-15.59-42.53-16.34-59.4,0-18.68,18.1-37.36,36.19-56.04,54.29-2.65,2.56-5.29,5.13-7.94,7.69-15.81,15.31-16.53,44.22,0,59.4,16.99,15.59,42.53,16.34,59.4,0h0Z"/>
  <path class="cls-1" d="M702.75,758.31c18.1,18.68,36.19,37.36,54.29,56.04l7.69,7.94c15.31,15.81,44.22,16.53,59.4,0s16.34-42.53,0-59.4c-18.1-18.68-36.19-37.36-54.29-56.04l-7.69-7.94c-15.31-15.81-44.22-16.53-59.4,0-15.59,16.99-16.34,42.53,0,59.4h0Z"/>
  <path class="cls-1" d="M147.3,184.95c18.1,18.68,36.19,37.36,54.29,56.04,2.56,2.65,5.13,5.29,7.69,7.94,15.31,15.81,44.22,16.53,59.4,0s16.34-42.53,0-59.4c-18.1-18.68-36.19-37.36-54.29-56.04l-7.69-7.94c-15.31-15.81-44.22-16.53-59.4,0-15.59,16.99-16.34,42.53,0,59.4h0Z"/>
</svg>