<?xml version="1.0" encoding="UTF-8"?>
<svg id="Ebene_1" data-name="Ebene 1" xmlns="http://www.w3.org/2000/svg" viewBox="0 0 575.92 853.34">
  <defs>
    <style>
      .cls-1 {
        fill: #f7f7eb;
      }

      .cls-2 {
        fill: #fff;
      }
    </style>
  </defs>
  <path class="cls-1" d="M239.97,716.6c0,25.9-.01,51.8-.02,77.7,0,3.67,0,7.34,0,11.01,0,12.31,5.36,25.24,14.06,33.94s21.98,14.59,33.94,14.06c26.01-1.17,47.99-21.09,48-48s.01-51.8.02-77.7c0-3.67,0-7.34,0-11.01,0-12.31-5.36-25.24-14.06-33.94s-21.98-14.59-33.94-14.06c-26.01,1.17-47.99,21.09-48,48h0Z"/>
  <g>
    <path class="cls-2" d="M52.09,644.41l119.05-115.23c19.97-19.33,3.84-49.67-26.42-49.67h-43.04c-29.14,0-45.64-28.42-27.93-48.11l76.19-84.67c17.71-19.69,1.22-48.11-27.93-48.11h0c-28.35,0-45.05-27.08-28.94-46.92L251.68,56.29c13.98-17.23,43.9-17.23,57.88,0l158.61,195.41c16.11,19.85-.59,46.92-28.94,46.92h0c-29.14,0-45.64,28.42-27.93,48.11l76.19,84.67c17.71,19.69,1.22,48.11-27.93,48.11h-28.38c-30.25,0-46.39,30.34-26.42,49.67l119.05,115.23c19.97,19.33,3.84,49.67-26.42,49.67H78.5c-30.25,0-46.39-30.34-26.42-49.67Z"/>
    <path class="cls-1" d="M82.69,675.01c26.53-25.69,53.07-51.37,79.6-77.06,12.45-12.06,24.91-24.11,37.36-36.17,10.43-10.09,19.6-23.16,21.86-37.8,1.79-11.55,2.06-18.49-.19-30.16-1.28-6.66-4.18-13.16-7.45-19.05-6.33-11.4-17.35-22.27-28.9-28.31-12.91-6.76-26.12-10.09-40.73-10.25-4.89-.05-9.79,0-14.68,0-11,0-22.41.88-33.37-.34l11.51,1.55c-3.41-.49-6.66-1.33-9.87-2.58,3.45,1.45,6.89,2.91,10.34,4.36-2.93-1.26-5.63-2.79-8.19-4.7l8.76,6.77c-2.06-1.65-3.89-3.44-5.57-5.48l6.77,8.76c-1.54-2.02-2.82-4.11-3.88-6.41l4.36,10.34c-.96-2.29-1.62-4.58-2.01-7.03l1.55,11.51c-.3-2.48-.28-4.85.05-7.32l-1.55,11.51c.38-2.18.98-4.22,1.82-6.27l-4.36,10.34c.99-2.16,2.17-4.13,3.59-6.05l-6.77,8.76c4.9-6.12,10.47-11.78,15.71-17.6,10.1-11.23,20.21-22.46,30.31-33.69,8.89-9.88,17.78-19.76,26.67-29.64,1.68-1.86,3.38-3.7,5.03-5.59,12.1-13.9,20.34-30.27,20.05-49.13-.3-19.64-9.05-40.04-24.38-52.64-9.77-8.03-19.56-14.13-32.03-17.42-9.13-2.41-18.46-2.19-27.71-3.25l11.51,1.55c-3.49-.52-6.8-1.39-10.08-2.71l10.34,4.36c-2.99-1.32-5.73-2.93-8.32-4.93l8.76,6.77c-2.09-1.73-3.91-3.59-5.58-5.73l6.77,8.76c-1.31-1.8-2.41-3.67-3.36-5.69l4.36,10.34c-.99-2.36-1.67-4.71-2.07-7.24l1.55,11.51c-.25-2.18-.26-4.29-.03-6.47l-1.55,11.51c.33-2.25.9-4.37,1.71-6.49l-4.36,10.34c.98-2.25,2.16-4.3,3.59-6.3l-6.77,8.76c17.97-23.07,36.87-45.46,55.3-68.17,28.81-35.49,57.62-70.98,86.43-106.48,4.51-5.56,9.02-11.11,13.53-16.67,3-3.7,5.82-7.38,9.58-10.39l-8.76,6.77c2.38-1.76,4.85-3.2,7.55-4.41l-10.34,4.36c3.53-1.45,7.13-2.41,10.91-2.92l-11.51,1.55c3.39-.36,6.72-.36,10.1,0l-11.51-1.55c3.78.52,7.39,1.47,10.91,2.92l-10.34-4.36c2.7,1.22,5.17,2.65,7.55,4.41l-8.76-6.77c7.53,6.02,13.33,15.02,19.35,22.43,12.53,15.44,25.06,30.88,37.59,46.31,29.1,35.85,58.2,71.7,87.29,107.55,6.87,8.46,13.89,16.81,20.59,25.41l-6.77-8.76c1.43,1.99,2.61,4.05,3.59,6.3-1.45-3.45-2.91-6.89-4.36-10.34.82,2.12,1.38,4.24,1.71,6.49l-1.55-11.51c.22,2.18.21,4.29-.03,6.47l1.55-11.51c-.4,2.53-1.07,4.88-2.07,7.24l4.36-10.34c-.95,2.02-2.05,3.88-3.36,5.69l6.77-8.76c-1.67,2.13-3.5,4-5.58,5.73l8.76-6.77c-2.59,2-5.33,3.6-8.32,4.93l10.34-4.36c-3.27,1.32-6.59,2.19-10.08,2.71l11.51-1.55c-8.46.97-16.68,1.01-25.19,2.67s-16.86,5.16-23.91,9.88c-15.46,10.35-28.69,25.43-32.85,44.08-4.16,18.65-1.9,39.16,9.45,55.04,3.66,5.13,7.42,9.63,11.54,14.21,18.53,20.6,37.07,41.19,55.6,61.79,6.34,7.05,13.1,13.88,19.03,21.29-2.26-2.92-4.51-5.84-6.77-8.76,1.41,1.91,2.59,3.88,3.59,6.05l-4.36-10.34c.84,2.04,1.44,4.09,1.82,6.27l-1.55-11.51c.33,2.47.34,4.85.05,7.32.52-3.84,1.03-7.67,1.55-11.51-.39,2.45-1.05,4.74-2.01,7.03l4.36-10.34c-1.07,2.31-2.34,4.39-3.88,6.41l6.77-8.76c-1.68,2.04-3.5,3.83-5.57,5.48l8.76-6.77c-2.56,1.91-5.26,3.44-8.19,4.7l10.34-4.36c-3.21,1.25-6.46,2.09-9.87,2.58,3.84-.52,7.67-1.03,11.51-1.55-9.85,1.1-20.07.34-29.96.34-22.68,0-43.54,6.61-60.33,22.24-21.26,19.79-27.4,51.44-16.26,77.83,4.36,10.34,11.04,18.98,19.04,26.73,29.32,28.38,58.64,56.76,87.96,85.14,6.87,6.65,13.75,13.31,20.62,19.96,3.52,3.41,7.34,6.71,10.39,10.56-2.26-2.92-4.51-5.84-6.77-8.76,1.36,1.86,2.5,3.77,3.45,5.87l-4.36-10.34c.95,2.33,1.58,4.64,1.92,7.13l-1.55-11.51c.2,2.07.18,4.07-.04,6.14.52-3.84,1.03-7.67,1.55-11.51-.36,2.4-.97,4.65-1.87,6.91l4.36-10.34c-1,2.27-2.21,4.34-3.68,6.35l6.77-8.76c-1.83,2.33-3.88,4.35-6.2,6.17l8.76-6.77c-2.54,1.86-5.21,3.35-8.1,4.57l10.34-4.36c-3.17,1.22-6.39,2.03-9.75,2.51,3.84-.52,7.67-1.03,11.51-1.55-5.1.56-10.32.34-15.45.34H128.79c-16.62,0-33.25.16-49.87,0-1.95-.02-3.89-.12-5.84-.34,3.84.52,7.67,1.03,11.51,1.55-3.37-.48-6.58-1.29-9.75-2.51l10.34,4.36c-2.9-1.22-5.57-2.72-8.1-4.57l8.76,6.77c-2.33-1.83-4.37-3.85-6.2-6.17l6.77,8.76c-1.47-2.01-2.67-4.08-3.68-6.35l4.36,10.34c-.9-2.26-1.51-4.51-1.87-6.91l1.55,11.51c-.22-2.06-.24-4.07-.04-6.14l-1.55,11.51c.34-2.49.97-4.8,1.92-7.13l-4.36,10.34c.96-2.09,2.09-4.01,3.45-5.87l-6.77,8.76c1.03-1.3,2.11-2.51,3.28-3.68,7.84-7.88,12.68-19.48,12.68-30.6s-4.72-23.3-12.68-30.6c-17.25-15.83-44.14-17.14-61.21,0-8.57,8.61-13.87,17.91-18.07,29.16-.75,2.02-1.28,3.99-1.64,6.12-.95,5.57-2.09,11.43-1.69,17.14,1.35,19.09,8.98,38.26,24.1,50.71,9.58,7.89,18.01,12.96,29.94,16.89,7.72,2.54,16.32,3.45,24.39,3.55.72,0,1.44,0,2.16,0h316.17c24.05,0,48.11,0,72.16,0,9.91,0,19.88.31,29.78-.02,20.71-.7,39.85-8.06,55.06-22.22,13.82-12.87,21.94-32.15,22.08-50.95.16-21.53-10.54-39.77-25.53-54.28-19.33-18.71-38.66-37.43-58-56.14-18.24-17.66-36.48-35.31-54.72-52.97-1.96-1.89-3.87-3.75-5.57-5.9l6.77,8.76c-1.36-1.86-2.5-3.77-3.45-5.87l4.36,10.34c-.95-2.33-1.58-4.64-1.92-7.13.52,3.84,1.03,7.67,1.55,11.51-.2-2.07-.18-4.07.04-6.14-.52,3.84-1.03,7.67-1.55,11.51.36-2.4.97-4.65,1.87-6.91l-4.36,10.34c1-2.27,2.21-4.34,3.68-6.35l-6.77,8.76c1.83-2.33,3.88-4.35,6.2-6.17l-8.76,6.77c2.54-1.86,5.21-3.35,8.1-4.57l-10.34,4.36c3.17-1.22,6.39-2.03,9.75-2.51-3.84.52-7.67,1.03-11.51,1.55,19.11-2.1,38.26,2.07,57.13-3.56,19.4-5.8,38.11-19.1,47.02-37.72,10.54-22.03,11.22-47.75-2.38-68.87-7.2-11.18-17.43-21.05-26.29-30.9-12.18-13.54-24.37-27.08-36.55-40.62-8.12-9.02-16.8-17.77-24.39-27.25l6.77,8.76c-1.41-1.91-2.59-3.88-3.59-6.05l4.36,10.34c-.84-2.04-1.44-4.09-1.82-6.27l1.55,11.51c-.33-2.47-.34-4.85-.05-7.32-.52,3.84-1.03,7.67-1.55,11.51.39-2.45,1.05-4.74,2.01-7.03l-4.36,10.34c1.07-2.31,2.34-4.39,3.88-6.41-2.26,2.92-4.51,5.84-6.77,8.76,1.68-2.04,3.5-3.83,5.57-5.48l-8.76,6.77c2.56-1.91,5.26-3.44,8.19-4.7l-10.34,4.36c3.21-1.25,6.46-2.09,9.87-2.58l-11.51,1.55c8.48-.95,16.72-.99,25.25-2.69,8.08-1.62,16.26-5.05,23.17-9.48,15.74-10.11,28.31-25.07,33.16-43.43s2.08-39.88-9-55.77c-2.75-3.95-5.91-7.75-8.97-11.52-11.23-13.84-22.46-27.68-33.7-41.51-35.62-43.88-71.23-87.76-106.85-131.63-4.67-5.75-9.33-11.5-14-17.25-9.91-12.21-23.25-20.62-38.26-25.41-28.11-8.98-64.35-.67-83.65,22.34-2.83,3.37-5.55,6.83-8.32,10.25-34.24,42.19-68.49,84.38-102.73,126.56-13.82,17.02-27.64,34.05-41.46,51.07-4.77,5.87-10.14,11.89-14.24,18.13-22.19,33.8-7.49,78.95,25.92,98.81,6.71,3.99,14.43,7.3,22.15,8.85,8.53,1.71,16.77,1.75,25.25,2.69l-11.51-1.55c3.41.49,6.66,1.33,9.87,2.58l-10.34-4.36c2.93,1.26,5.63,2.79,8.19,4.7l-8.76-6.77c2.06,1.65,3.89,3.44,5.57,5.48l-6.77-8.76c1.54,2.02,2.82,4.11,3.88,6.41l-4.36-10.34c.96,2.29,1.62,4.58,2.01,7.03l-1.55-11.51c.3,2.48.28,4.85-.05,7.32l1.55-11.51c-.38,2.18-.98,4.22-1.82,6.27l4.36-10.34c-.99,2.16-2.17,4.13-3.59,6.05l6.77-8.76c-7.02,8.77-15.05,16.87-22.56,25.21-12.98,14.43-25.97,28.86-38.95,43.28l-13.26,14.74c-.94,1.05-1.9,2.09-2.83,3.15-7.97,9.11-12.18,16.22-16.52,27.29-8.54,21.78-2.02,46.91,11.77,64.76,15.15,19.61,38.46,29.83,63.09,30.16,7.83.11,15.67,0,23.5,0,8.24,0,16.74-.57,24.96.34-3.84-.52-7.67-1.03-11.51-1.55,3.37.48,6.58,1.29,9.75,2.51l-10.34-4.36c2.9,1.22,5.57,2.72,8.1,4.57l-8.76-6.77c2.33,1.83,4.37,3.85,6.2,6.17l-6.77-8.76c1.47,2.01,2.67,4.08,3.68,6.35l-4.36-10.34c.9,2.26,1.51,4.51,1.87,6.91l-1.55-11.51c.22,2.06.24,4.07.04,6.14l1.55-11.51c-.34,2.49-.97,4.8-1.92,7.13l4.36-10.34c-.96,2.09-2.09,4.01-3.45,5.87l6.77-8.76c-4.06,5.13-9.29,9.5-13.97,14.03l-28.08,27.18c-21.64,20.95-43.28,41.9-64.93,62.85-5.12,4.95-10.24,9.91-15.36,14.86-7.89,7.64-12.68,19.69-12.68,30.6s4.72,23.3,12.68,30.6c17.51,16.07,43.82,16.83,61.21,0Z"/>
  </g>
</svg>