<?xml version="1.0" encoding="UTF-8"?>
<svg id="Ebene_1" data-name="Ebene 1" xmlns="http://www.w3.org/2000/svg" viewBox="0 0 943.15 711.04">
  <defs>
    <style>
      .cls-1 {
        fill: #f7f7eb;
      }

      .cls-2 {
        fill: #fff;
      }
    </style>
  </defs>
  <path class="cls-2" d="M898.28,109.78c-46.21-49.65-136.27-76.12-234.69-62.56-62.14,8.56-116.76,31.58-156.4,62.56-13.54,10.59-25.34,22.1-35.09,34.28v.92c-.11-.16-.24-.31-.36-.47-.22.26-.43.54-.63.81v-1.61c-9.45-12.03-20.9-23.42-34.04-33.93-39.8-31.8-95.23-55.47-158.44-64.17-99.47-13.7-190.42,13.49-236.17,64.17-.13.14-.25.29-.39.43v555.34c40.18-60.45,139.08-94.66,248.23-79.62,74.2,10.22,137.68,41.07,177.75,81.47h3.06v1.61h4.05c40.07-40.4,103.54-71.26,177.75-81.48,109.17-15.03,208.07,19.18,248.23,79.65l-2.86-557.4c-.93-1.07.98,1.05,0,0ZM472.11,144.07l-.99,524.95"/>
  <g>
    <path class="cls-1" d="M927.98,80.08c-46.59-49.63-115.97-71.03-181.97-76.99-37.95-3.43-76.37-.25-113.72,6.95s-70.89,19.3-103.33,36.1c-16.34,8.46-31.53,18.53-46.08,29.77-9.15,7.07-18.04,14.37-26.22,22.56-3.45,3.45-6.77,7.02-9.96,10.71-1.47,1.7-2.9,3.43-4.3,5.18-4.64,5.76-8.81,11.31-10.8,18.53-.91,3.3-1.5,8.65-1.5,12.09,26.09-7.07,52.18-14.13,78.27-21.2l-.36-.47c-3.73-6.31-8.76-11.33-15.07-15.07-4.82-3.07-10.03-4.73-15.62-4.98-11.91-1.6-27.31,1.4-35.28,11.55l-.63.81c23.9,9.9,47.8,19.8,71.7,29.7,0-2.61-.32-3.98-.75-7.19-.73-5.44-2.17-10.8-4.98-15.62-2.01-3.43-5.13-6.73-7.63-9.83s-5.15-6.2-7.86-9.18c-5.64-6.18-11.67-12-18-17.48-13.34-11.55-27.67-22.22-42.74-31.41-28.11-17.15-59.36-30.1-91.02-39.02C273.68-3.15,200.66-5.72,133.65,11.86c-28.48,7.47-57.01,18.99-81.57,35.37-12.63,8.42-24.92,17.94-35.54,28.83C7.25,85.6.38,96.36.08,110.28c0,.27,0,.55,0,.82-.17,12.14,0,24.29,0,36.43,0,25.96,0,51.91,0,77.87,0,34.32,0,68.63,0,102.95,0,37.06,0,74.12,0,111.18,0,34.7,0,69.41,0,104.11,0,26.73,0,53.46,0,80.2,0,13.3-.15,26.62,0,39.92,0,.59,0,1.18,0,1.77,0,17.75,12.98,36.43,30.83,40.5,7.38,1.68,14.95,1.68,22.33,0,10.64-2.42,19.25-10.59,25.1-19.3,1.74-2.58,3.55-5.1,5.45-7.57-2.19,2.83-4.38,5.67-6.57,8.5,7.77-9.93,16.8-18.69,26.71-26.45l-8.5,6.57c14.09-10.88,29.65-19.58,46.01-26.57l-10.03,4.23c23.46-9.87,48.21-16.12,73.4-19.56l-11.17,1.5c31.52-4.15,63.43-3.82,94.93.3l-11.17-1.5c31.78,4.31,62.95,12.44,92.55,24.84l-10.03-4.23c22.75,9.66,44.41,21.76,64.07,36.79-2.83-2.19-5.67-4.38-8.5-6.57,5.53,4.28,10.89,8.75,16.03,13.49,2.33,2.15,4.53,4.42,6.84,6.59,9.28,8.74,20.24,12.3,32.76,12.3l-42-42v1.61c0,22.7,19.24,42,42,42,5.23,0,9.75,0,15.21-1.5,10.23-2.82,17.02-9.59,24.37-16.46,5.44-5.08,11.14-9.86,17.03-14.42-2.83,2.19-5.67,4.38-8.5,6.57,19.66-15.03,41.32-27.13,64.07-36.79l-10.03,4.23c29.6-12.4,60.77-20.54,92.55-24.85l-11.17,1.5c31.51-4.12,63.42-4.44,94.94-.29l-11.17-1.5c25.19,3.44,49.94,9.69,73.4,19.56l-10.03-4.23c16.35,6.99,31.91,15.7,46.01,26.58l-8.5-6.57c9.91,7.77,18.94,16.53,26.7,26.46l-6.57-8.5c1.89,2.47,3.71,4.99,5.44,7.58,10.05,14.99,29.09,25.24,47.43,19.3s30.93-21.45,30.83-40.5-.19-37.42-.29-56.13c-.23-44.68-.46-89.37-.69-134.05-.28-54.05-.56-108.1-.83-162.15l-.71-138.82c-.11-21.87.12-43.78-.34-65.65-.26-12.29-4.72-21.38-12.57-30.61-19.8,19.8-39.6,39.6-59.4,59.4.19.2.37.4.55.61,19.8-19.8,39.6-39.6,59.4-59.4l-.29-.3c-15.21-15.92-44.29-16.46-59.4,0-15.68,17.08-16.23,42.42,0,59.4l.29.3c15.21,15.92,44.29,16.46,59.4,0,7.35-8,12.8-18.51,12.3-29.7s-4.75-20.82-12.3-29.7c-.18-.21-.36-.41-.55-.61-15.21-15.92-44.29-16.46-59.4,0-7.35,8-12.8,18.51-12.3,29.7s4.75,20.82,12.3,29.7l.26.31-12.3-29.7c.1,18.6.19,37.21.29,55.81.23,44.31.46,88.63.68,132.94.28,53.56.55,107.12.83,160.67.24,46.45.48,92.9.72,139.35.12,22.55-.18,45.14.35,67.69,0,.31,0,.63,0,.94,26.09-7.07,52.18-14.13,78.27-21.2-37.06-55.25-100.72-86.67-165.02-97.71-37.57-6.45-75.51-8.14-113.39-3.54-21.25,2.58-42.31,5.96-63,11.5-19.45,5.2-38.08,12.32-56.56,20.25-34.66,14.87-67.27,36.07-93.96,62.82l29.7-12.3h-4.05c14,14,28,28,42,42v-1.61c0-22.7-19.24-42-42-42h-3.06l29.7,12.3c-23.68-23.72-52.2-43.26-82.44-57.62-34.22-16.25-70.26-27.98-107.73-33.76-40-6.17-79.39-7.57-119.53-2.18-35.55,4.78-69.37,14.33-101.6,30.32-32.34,16.05-60.5,39.88-80.64,69.89,26.09,7.07,52.18,14.13,78.27,21.2V178.69c0-22.5.41-45.04,0-67.54,0-.31,0-.63,0-.94l-12.3,29.7c6.37-6.93,13.2-13.29,20.61-19.09l-8.5,6.57c14.02-10.81,29.49-19.46,45.74-26.42l-10.03,4.23c23.44-9.88,48.17-16.14,73.34-19.59l-11.17,1.5c31.57-4.17,63.53-3.86,95.1.26l-11.17-1.5c31.59,4.27,62.57,12.33,92.01,24.6l-10.03-4.23c23.03,9.72,44.95,21.95,64.82,37.16l-8.5-6.57c13.85,10.73,26.53,22.85,37.43,36.58-4.1-9.9-8.2-19.8-12.3-29.7v1.61c0,16.8,10.56,31.94,25.82,38.38,7.15,3.02,14.08,3.9,21.76,2.87,8.28-1.11,18.72-4.68,24.12-11.55l.63-.81c-21.99-2.83-43.98-5.67-65.96-8.5l.36.47c5.7,7.54,11.1,13.39,20.08,17.18,8.35,3.52,18.48,4.99,27.35,2.12,17.65-5.71,30.83-21.43,30.83-40.5v-.92l-12.3,29.7c10.63-13.15,22.88-24.8,36.23-35.17l-8.5,6.57c19.88-15.26,41.82-27.51,64.88-37.26l-10.03,4.23c29.49-12.3,60.52-20.38,92.16-24.66l-11.17,1.5c31.6-4.13,63.6-4.44,95.21-.25l-11.17-1.5c24.72,3.4,49.02,9.51,72.08,19.1l-10.03-4.23c16.35,6.9,31.91,15.5,46.05,26.26-2.83-2.19-5.67-4.38-8.5-6.57,6.98,5.39,13.53,11.26,19.57,17.7,15.07,16.06,44.38,16.35,59.4,0,15.79-17.2,16.08-42.27,0-59.4Z"/>
    <path class="cls-1" d="M430.11,144.07c-.03,17.44-.07,34.87-.1,52.31-.08,41.86-.16,83.73-.24,125.59-.1,50.45-.19,100.91-.29,151.36-.08,43.63-.16,87.26-.25,130.89-.04,21.29-.4,42.61-.12,63.9,0,.3,0,.6,0,.9-.02,10.76,4.7,22.1,12.3,29.7s19.24,12.77,29.7,12.3c22.79-1.02,41.96-18.45,42-42,.03-17.44.07-34.87.1-52.31.08-41.86.16-83.73.24-125.59.1-50.45.19-100.91.29-151.36.08-43.63.16-87.26.25-130.89.04-21.29.4-42.61.12-63.9,0-.3,0-.6,0-.9.02-10.76-4.7-22.1-12.3-29.7s-19.24-12.77-29.7-12.3c-22.79,1.02-41.96,18.45-42,42h0Z"/>
  </g>
</svg>